<svg width="40" height="40" viewBox="0 0 40 40" fill="none" xmlns="http://www.w3.org/2000/svg">
<circle cx="20" cy="20" r="20" fill="white" fill-opacity="0.7"/>
<path d="M23.4372 24.1707L23.9221 23.4334L26.0143 25.8818H28.857L25.1575 21.5554L28.4585 16.5474H25.8881L23.4372 20.2686V13.2643H21.3251V25.8818H23.4372V24.1707ZM15.2942 24.1707L15.7791 23.4403L17.8713 25.8887H20.714L17.0145 21.5554L20.3155 16.5474H17.7451L15.2942 20.2686V13.2643H13.1821V25.8818H15.2942V24.1707ZM27.688 21.0963C27.688 23.802 29.7736 26 32.344 26C34.9144 26 37 23.802 37 21.0963C37 18.3906 34.9144 16.1926 32.344 16.1926C29.7736 16.1926 27.688 18.3836 27.688 21.0963ZM7.65599 16.1926C5.08556 16.1926 3 18.3836 3 21.0963C3 23.802 5.08556 26 7.65599 26C10.2264 26 12.312 23.802 12.312 21.0963C12.3186 18.3836 10.2331 16.1926 7.65599 16.1926ZM7.61614 13C7.03165 13 6.56007 13.4938 6.56007 14.1129C6.56007 14.725 7.03165 15.2258 7.61614 15.2258C8.20062 15.2258 8.6722 14.725 8.6722 14.1129C8.6722 13.4938 8.20062 13 7.61614 13ZM10.1998 13C9.61536 13 9.14378 13.4938 9.14378 14.1129C9.14378 14.725 9.61536 15.2258 10.1998 15.2258C10.7843 15.2258 11.2559 14.725 11.2559 14.1129C11.2626 13.4938 10.7843 13 10.1998 13ZM5.07228 13C4.48779 13 4.01621 13.4938 4.01621 14.1129C4.01621 14.725 4.48779 15.2258 5.07228 15.2258C5.65677 15.2258 6.12835 14.725 6.12835 14.1129C6.12835 13.4938 5.65677 13 5.07228 13ZM5.11213 21.0963C5.11213 19.6217 6.25454 18.4184 7.65599 18.4184C9.05743 18.4184 10.1998 19.6217 10.1998 21.0963C10.1998 22.5709 9.05743 23.7742 7.65599 23.7742C6.25454 23.7742 5.11213 22.5709 5.11213 21.0963ZM29.8002 21.0963C29.8002 19.6217 30.9426 18.4184 32.344 18.4184C33.7455 18.4184 34.8879 19.6217 34.8879 21.0963C34.8879 22.5709 33.7455 23.7742 32.344 23.7742C30.9426 23.7742 29.8002 22.5709 29.8002 21.0963Z" fill="black"/>
</svg>
